<?xml version="1.0" encoding="UTF-8"?>
<svg xmlns="http://www.w3.org/2000/svg" xmlns:xlink="http://www.w3.org/1999/xlink" width="100pt" height="100pt" viewBox="0 0 100 100" version="1.1">
<g id="surface1">
<path style=" stroke:none;fill-rule:nonzero;fill:rgb(0%,0%,0%);fill-opacity:1;" d="M 18.371094 9.132812 C 16.972656 9.6875 16.015625 10.546875 15.367188 11.867188 L 14.773438 13.035156 L 14.773438 20.449219 L 18.601562 20.449219 L 18.601562 17.289062 C 18.601562 13.59375 18.734375 13.113281 19.902344 12.808594 C 20.304688 12.691406 22.699219 12.597656 25.496094 12.597656 C 28.289062 12.597656 30.683594 12.691406 31.085938 12.808594 C 32.253906 13.113281 32.386719 13.59375 32.386719 17.289062 L 32.386719 20.449219 L 36.21875 20.449219 L 36.21875 13.035156 L 35.625 11.867188 C 34.972656 10.527344 33.996094 9.667969 32.578125 9.132812 C 31.699219 8.804688 31.046875 8.765625 25.4375 8.765625 C 19.902344 8.785156 19.175781 8.824219 18.371094 9.132812 Z M 18.371094 9.132812 "/>
<path style=" stroke:none;fill-rule:nonzero;fill:rgb(0%,0%,0%);fill-opacity:1;" d="M 67.390625 9.132812 C 65.992188 9.6875 65.035156 10.546875 64.386719 11.867188 L 63.792969 13.035156 L 63.792969 20.449219 L 67.621094 20.449219 L 67.621094 17.289062 C 67.621094 13.59375 67.757812 13.113281 68.925781 12.808594 C 69.324219 12.691406 71.71875 12.597656 74.515625 12.597656 C 77.3125 12.597656 79.703125 12.691406 80.105469 12.808594 C 81.273438 13.113281 81.40625 13.59375 81.40625 17.289062 L 81.40625 20.449219 L 85.238281 20.449219 L 85.238281 13.035156 L 84.644531 11.867188 C 83.992188 10.527344 83.015625 9.667969 81.597656 9.132812 C 80.71875 8.804688 80.066406 8.765625 74.457031 8.765625 C 68.921875 8.785156 68.195312 8.824219 67.390625 9.132812 Z M 67.390625 9.132812 "/>
<path style=" stroke:none;fill-rule:nonzero;fill:rgb(0%,0%,0%);fill-opacity:1;" d="M 9.027344 22.496094 C 7.957031 22.648438 6.769531 23.03125 5.886719 23.472656 C 4.664062 24.085938 2.84375 25.808594 2.152344 27.035156 C 0.910156 29.21875 0.96875 27.398438 1.023438 57.230469 L 1.082031 84.304688 L 1.789062 85.800781 C 2.996094 88.328125 5.199219 90.144531 7.976562 90.933594 C 9.410156 91.335938 90.597656 91.335938 92.035156 90.933594 C 94.8125 90.148438 97.011719 88.328125 98.21875 85.800781 L 98.929688 84.304688 L 98.984375 57.230469 C 99.023438 32.875 99.003906 30.023438 98.71875 29.085938 C 97.894531 26.171875 95.632812 23.875 92.53125 22.785156 C 91.726562 22.496094 88.1875 22.460938 50.578125 22.4375 C 27.984375 22.421875 9.296875 22.4375 9.027344 22.496094 Z M 91.59375 26.882812 C 92.761719 27.265625 93.851562 28.222656 94.429688 29.371094 L 94.90625 30.308594 L 94.964844 56.484375 C 95.003906 82.484375 95.003906 82.65625 94.617188 83.710938 C 94.101562 85.050781 92.992188 86.183594 91.632812 86.699219 C 90.578125 87.082031 90.40625 87.082031 50.003906 87.082031 C 9.734375 87.082031 9.410156 87.082031 8.394531 86.699219 C 7.148438 86.21875 6.058594 85.226562 5.503906 84.035156 L 5.101562 83.15625 L 5.101562 30.308594 L 5.582031 29.371094 C 5.847656 28.851562 6.386719 28.144531 6.804688 27.800781 C 8.300781 26.515625 4.988281 26.613281 49.925781 26.59375 C 86.347656 26.574219 90.808594 26.613281 91.59375 26.882812 Z M 91.59375 26.882812 "/>
<path style=" stroke:none;fill-rule:nonzero;fill:rgb(0%,0%,0%);fill-opacity:1;" d="M 71.640625 49.933594 L 71.640625 53.765625 L 63.792969 53.765625 L 63.792969 59.699219 L 71.640625 59.699219 L 71.640625 67.550781 L 77.386719 67.550781 L 77.386719 59.699219 L 85.234375 59.699219 L 85.234375 53.765625 L 77.386719 53.765625 L 77.386719 46.105469 L 71.640625 46.105469 Z M 71.640625 49.933594 "/>
<path style=" stroke:none;fill-rule:nonzero;fill:rgb(0%,0%,0%);fill-opacity:1;" d="M 14.773438 56.734375 L 14.773438 59.699219 L 36.21875 59.699219 L 36.21875 53.765625 L 14.773438 53.765625 Z M 14.773438 56.734375 "/>
</g>
</svg>
