<?xml version="1.0" encoding="UTF-8" ?>
<svg xmlns="http://www.w3.org/2000/svg" xmlns:xlink="http://www.w3.org/1999/xlink" width="100px" height="100px" viewBox="0 0 100 100" version="1.1">
    <g id="surface1">
        <path style="fill:none;stroke-width:1.5;stroke-linecap:round;stroke-linejoin:round;stroke:rgb(10.196079%,9.019608%,10.588235%);stroke-opacity:1;stroke-miterlimit:4;" d="M 84.46956 24.190769 C 83.384268 23.862736 82.20769 24.054272 81.281304 24.710338 L 73.491547 29.210332 L 61.401195 36.209099 C 58.889133 37.659929 56.850408 40.869807 56.850408 43.379588 L 56.850408 51.871015 L 5.490077 28.219628 L 5.490077 19.719396 C 5.490077 17.209614 7.491612 14.010744 10.030721 12.559914 L 29.910831 1.080967 C 30.84736 0.413894 32.044223 0.224559 33.139658 0.570205 Z M 84.46956 24.190769 " transform="matrix(1.155363,0,0,1.774308,0.203841,0)" />
        <path style="fill:none;stroke-width:1.5;stroke-linecap:round;stroke-linejoin:round;stroke:rgb(10.196079%,9.019608%,10.588235%);stroke-opacity:1;stroke-miterlimit:4;" d="M 85.818567 26.6301 L 85.818567 35.130333 L 56.819979 51.848999 L 56.819979 43.359774 C 56.819979 40.849993 58.821514 37.640114 61.370766 36.189285 L 73.461118 29.190518 L 81.250875 24.690524 C 82.177262 24.034458 83.353839 23.842922 84.439131 24.170955 C 85.382422 24.606864 85.936901 25.597567 85.818567 26.6301 Z M 85.818567 26.6301 " transform="matrix(1.155363,0,0,1.774308,0.203841,0)" />
        <path style="fill:none;stroke-width:1.5;stroke-linecap:round;stroke-linejoin:round;stroke:rgb(10.196079%,9.019608%,10.588235%);stroke-opacity:1;stroke-miterlimit:4;" d="M 54.950302 48.969355 L 7.390183 27.110041 " transform="matrix(1.155363,0,0,1.774308,0.203841,0)" />
        <path style="fill:none;stroke-width:1.5;stroke-linecap:round;stroke-linejoin:round;stroke:rgb(10.196079%,9.019608%,10.588235%);stroke-opacity:1;stroke-miterlimit:4;" d="M 54.950302 46.069897 L 7.390183 24.210583 " transform="matrix(1.155363,0,0,1.774308,0.203841,0)" />
        <path style="fill:none;stroke-width:1.5;stroke-linecap:round;stroke-linejoin:round;stroke:rgb(10.196079%,9.019608%,10.588235%);stroke-opacity:1;stroke-miterlimit:4;" d="M 54.950302 43.179246 L 7.390183 21.319931 " transform="matrix(1.155363,0,0,1.774308,0.203841,0)" />
        <path style="fill:none;stroke-width:1.5;stroke-linecap:round;stroke-linejoin:round;stroke:rgb(10.196079%,9.019608%,10.588235%);stroke-opacity:1;stroke-miterlimit:4;" d="M 78.640766 24.281033 L 31.080647 2.419517 " transform="matrix(1.155363,0,0,1.774308,0.203841,0)" />
        <path style="fill:none;stroke-width:1.5;stroke-linecap:round;stroke-linejoin:round;stroke:rgb(10.196079%,9.019608%,10.588235%);stroke-opacity:1;stroke-miterlimit:4;" d="M 75.111032 26.379122 L 27.550913 4.519808 " transform="matrix(1.155363,0,0,1.774308,0.203841,0)" />
        <path style="fill:none;stroke-width:1.5;stroke-linecap:round;stroke-linejoin:round;stroke:rgb(10.196079%,9.019608%,10.588235%);stroke-opacity:1;stroke-miterlimit:4;" d="M 71.591441 28.479413 L 24.031322 6.620099 " transform="matrix(1.155363,0,0,1.774308,0.203841,0)" />
        <path style="fill:none;stroke-width:1.5;stroke-linecap:round;stroke-linejoin:round;stroke:rgb(10.196079%,9.019608%,10.588235%);stroke-opacity:1;stroke-miterlimit:4;" d="M 68.058327 30.579703 L 20.501588 8.720389 " transform="matrix(1.155363,0,0,1.774308,0.203841,0)" />
        <path style="fill:none;stroke-width:1.5;stroke-linecap:round;stroke-linejoin:round;stroke:rgb(10.196079%,9.019608%,10.588235%);stroke-opacity:1;stroke-miterlimit:4;" d="M 64.538736 32.679994 L 16.968473 10.82068 " transform="matrix(1.155363,0,0,1.774308,0.203841,0)" />
        <path style="fill:none;stroke-width:1.5;stroke-linecap:round;stroke-linejoin:round;stroke:rgb(10.196079%,9.019608%,10.588235%);stroke-opacity:1;stroke-miterlimit:4;" d="M 61.009002 34.780285 L 13.448883 12.92097 " transform="matrix(1.155363,0,0,1.774308,0.203841,0)" />
        <path style="fill:none;stroke-width:1.5;stroke-linecap:round;stroke-linejoin:round;stroke:rgb(10.196079%,9.019608%,10.588235%);stroke-opacity:1;stroke-miterlimit:4;" d="M 57.479268 36.880575 L 9.919149 15.01906 " transform="matrix(1.155363,0,0,1.774308,0.203841,0)" />
        <path style="fill:none;stroke-width:1.5;stroke-linecap:round;stroke-linejoin:round;stroke:rgb(10.196079%,9.019608%,10.588235%);stroke-opacity:1;stroke-miterlimit:4;" d="M 11.4913 35.189775 L 5.490077 32.42021 L 5.490077 28.629119 L 11.4913 31.400886 Z M 11.4913 35.189775 " transform="matrix(1.155363,0,0,1.774308,0.203841,0)" />
        <path style="fill:none;stroke-width:1.5;stroke-linecap:round;stroke-linejoin:round;stroke:rgb(10.196079%,9.019608%,10.588235%);stroke-opacity:1;stroke-miterlimit:4;" d="M 11.579206 31.400886 L 11.579206 35.189775 L 15.741181 33.281021 " transform="matrix(1.155363,0,0,1.774308,0.203841,0)" />
        <path style="fill:none;stroke-width:1.5;stroke-linecap:round;stroke-linejoin:round;stroke:rgb(10.196079%,9.019608%,10.588235%);stroke-opacity:1;stroke-miterlimit:4;" d="M 56.701645 56.009952 L 50.690278 53.240387 L 50.690278 49.449296 L 56.701645 52.221063 Z M 56.701645 56.009952 " transform="matrix(1.155363,0,0,1.774308,0.203841,0)" />
        <path style="fill:none;stroke-width:1.5;stroke-linecap:round;stroke-linejoin:round;stroke:rgb(10.196079%,9.019608%,10.588235%);stroke-opacity:1;stroke-miterlimit:4;" d="M 56.779407 52.221063 L 56.779407 56.009952 L 60.941383 53.940483 L 60.941383 49.488924 " transform="matrix(1.155363,0,0,1.774308,0.203841,0)" />
        <path style="fill:none;stroke-width:1.5;stroke-linecap:round;stroke-linejoin:round;stroke:rgb(10.196079%,9.019608%,10.588235%);stroke-opacity:1;stroke-miterlimit:4;" d="M 81.568687 37.648921 L 81.568687 41.440011 L 77.971334 39.780033 " transform="matrix(1.155363,0,0,1.774308,0.203841,0)" />
        <path style="fill:none;stroke-width:1.5;stroke-linecap:round;stroke-linejoin:round;stroke:rgb(10.196079%,9.019608%,10.588235%);stroke-opacity:1;stroke-miterlimit:4;" d="M 81.659973 37.648921 L 81.659973 41.440011 L 85.818567 39.379349 L 85.818567 34.929991 " transform="matrix(1.155363,0,0,1.774308,0.203841,0)" />
        <path style="fill:none;stroke-width:1.5;stroke-linecap:round;stroke-linejoin:round;stroke:rgb(10.196079%,9.019608%,10.588235%);stroke-opacity:1;stroke-miterlimit:4;" d="M 81.041255 34.59095 L 69.789384 41.078955 L 69.789384 34.009738 L 81.041255 27.519532 Z M 81.041255 34.59095 " transform="matrix(1.155363,0,0,1.774308,0.203841,0)" />
        <path style="fill:none;stroke-width:1.5;stroke-linecap:round;stroke-linejoin:round;stroke:rgb(10.196079%,9.019608%,10.588235%);stroke-opacity:1;stroke-miterlimit:4;" d="M 66.580842 39.529055 C 66.452365 41.90234 65.201406 44.07308 63.210014 45.3698 C 61.35048 46.43976 59.839186 45.570143 59.839186 43.419216 C 59.967663 41.048133 61.218622 38.877393 63.210014 37.580672 C 65.079691 36.510713 66.580842 37.38033 66.580842 39.529055 Z M 66.580842 39.529055 " transform="matrix(1.155363,0,0,1.774308,0.203841,0)" />
    </g>
</svg>