<?xml version="1.0" encoding="UTF-8"?>
<svg xmlns="http://www.w3.org/2000/svg" xmlns:xlink="http://www.w3.org/1999/xlink" width="100px" height="100px" viewBox="0 0 100 100" version="1.1">
<g id="surface1">
<path style=" stroke:none;fill-rule:nonzero;fill:rgb(0%,0%,0%);fill-opacity:1;" d="M 88.433594 34.621094 L 12.453125 34.621094 L 10.972656 46.035156 L 10.953125 46.253906 L 90.316406 46.253906 Z M 27.722656 44.546875 L 25.246094 44.527344 L 26.097656 36.519531 L 28.582031 36.550781 Z M 50.75 44.078125 L 48.253906 44.078125 L 48.253906 36.246094 L 50.75 36.246094 Z M 70.441406 44.722656 L 69.578125 36.730469 L 72.0625 36.699219 L 72.921875 44.707031 Z M 70.441406 44.722656 "/>
<path style=" stroke:none;fill-rule:nonzero;fill:rgb(0%,0%,0%);fill-opacity:1;" d="M 86.363281 21.765625 L 14.109375 21.765625 L 12.800781 31.90625 L 12.777344 32.125 L 88.03125 32.125 Z M 29.074219 30.890625 L 26.59375 30.871094 L 27.449219 22.871094 L 29.933594 22.894531 Z M 50.75 30.886719 L 48.253906 30.886719 L 48.253906 23.046875 L 50.75 23.046875 Z M 69.089844 31.066406 L 68.230469 23.078125 L 70.714844 23.046875 L 71.574219 31.050781 Z M 69.089844 31.066406 "/>
<path style=" stroke:none;fill-rule:nonzero;fill:rgb(0%,0%,0%);fill-opacity:1;" d="M 10.628906 48.75 L 9.347656 58.660156 L 9.316406 58.878906 L 92.347656 58.878906 L 90.71875 48.75 Z M 26.160156 57.839844 L 23.683594 57.816406 L 24.535156 49.8125 L 27.027344 49.839844 Z M 50.75 58.214844 L 48.253906 58.214844 L 48.253906 50.371094 L 50.75 50.371094 Z M 72.003906 58.019531 L 71.144531 50.027344 L 73.625 49.996094 L 74.484375 57.996094 Z M 72.003906 58.019531 "/>
<path style=" stroke:none;fill-rule:nonzero;fill:rgb(0%,0%,0%);fill-opacity:1;" d="M 51.058594 65.34375 L 100.089844 65.34375 L 92.636719 15 L 7.457031 15 L 0 65.34375 L 47.550781 65.34375 L 47.550781 81.589844 L 29.347656 81.59375 L 29.347656 85.050781 L 68.988281 85.089844 L 68.988281 81.589844 L 51.058594 81.589844 Z M 2.683594 63.03125 L 2.714844 62.828125 L 9.457031 17.308594 L 90.636719 17.308594 L 97.417969 63.03125 Z M 2.683594 63.03125 "/>
</g>
</svg>
