<?xml version="1.0" encoding="UTF-8"?>
<svg xmlns="http://www.w3.org/2000/svg" xmlns:xlink="http://www.w3.org/1999/xlink" width="100px" height="100px" viewBox="0 0 100 100" version="1.1">
<g id="surface1">
<path style=" stroke:none;fill-rule:nonzero;fill:rgb(0%,0%,0%);fill-opacity:1;" d="M 87.589844 9 L 79.589844 9 L 79.589844 21.800781 L 83.789062 21.800781 C 83.929688 21.789062 84.070312 21.761719 84.210938 21.761719 C 86.910156 21.761719 89.101562 23.949219 89.101562 26.640625 C 89.101562 29.328125 86.910156 31.519531 84.210938 31.519531 C 83.839844 31.519531 83.480469 31.46875 83.140625 31.390625 L 16.851562 31.390625 C 16.5 31.46875 16.148438 31.519531 15.78125 31.519531 C 15.410156 31.519531 15.050781 31.46875 14.710938 31.390625 L 14 31.390625 L 14 31.171875 C 12.179688 30.460938 10.890625 28.699219 10.890625 26.628906 C 10.890625 24.558594 12.179688 22.800781 14 22.089844 L 14 21.789062 L 15.359375 21.789062 C 15.5 21.78125 15.628906 21.75 15.78125 21.75 C 15.929688 21.75 16.058594 21.78125 16.199219 21.789062 L 20.398438 21.789062 L 20.398438 16.988281 L 23.601562 16.988281 L 23.601562 21.789062 L 76.398438 21.789062 L 76.398438 9 L 66.800781 9 L 66.800781 11.800781 L 58.800781 15.398438 L 61.089844 8.261719 L 58.800781 1 L 66.800781 4.601562 L 66.800781 7.398438 L 87.601562 7.398438 L 87.601562 4.199219 L 94 8.199219 L 87.601562 12.199219 L 87.601562 9 Z M 26.800781 15.398438 L 17.199219 15.398438 L 17.199219 10.601562 L 26.800781 10.601562 Z M 32.28125 11.988281 C 30.148438 11.988281 28.328125 10.769531 27.410156 9 L 22.539062 9 C 21.699219 9.789062 20.441406 10.320312 19.050781 10.558594 C 18.980469 10.570312 18.929688 9.921875 18.898438 9 L 16.359375 9 C 15.449219 10.769531 13.621094 11.988281 11.488281 11.988281 C 8.449219 11.988281 5.988281 9.53125 5.988281 6.5 C 5.988281 3.46875 8.449219 1.011719 11.488281 1.011719 C 14.289062 1.011719 16.570312 3.109375 16.921875 5.808594 L 18.878906 5.808594 C 18.898438 4.238281 18.960938 2.878906 19.050781 2.871094 C 21.179688 2.648438 22.980469 4.070312 23.460938 5.808594 L 26.839844 5.808594 C 27.191406 3.109375 29.46875 1.011719 32.269531 1.011719 C 35.308594 1.011719 37.769531 3.46875 37.769531 6.5 C 37.769531 9.53125 35.320312 11.988281 32.28125 11.988281 Z M 46 34.601562 L 54 34.601562 L 54 42.601562 L 46 42.601562 Z M 45.511719 79.390625 L 53.511719 79.390625 L 53.511719 99 L 45.511719 99 Z M 46 45.789062 L 73.199219 45.789062 L 73.199219 74.589844 L 25.199219 74.589844 L 25.199219 45.789062 Z M 51.828125 70.589844 C 55.429688 70.589844 58.460938 68.011719 59.441406 64.488281 L 56.859375 64.488281 C 56.011719 66.640625 54.078125 68.148438 51.828125 68.148438 C 48.789062 68.148438 46.328125 65.421875 46.328125 62.050781 C 46.328125 58.679688 48.789062 55.949219 51.828125 55.949219 C 53.621094 55.949219 55.199219 56.921875 56.199219 58.390625 L 59 58.390625 C 57.730469 55.5 55 53.5 51.828125 53.5 C 47.441406 53.5 43.890625 57.328125 43.890625 62.050781 C 43.890625 66.761719 47.449219 70.589844 51.828125 70.589844 Z M 40.21875 51.058594 C 38.871094 51.058594 37.78125 52.148438 37.78125 53.5 C 37.78125 54.851562 38.871094 55.941406 40.21875 55.941406 C 41.570312 55.941406 42.660156 54.851562 42.660156 53.5 C 42.671875 52.148438 41.570312 51.058594 40.21875 51.058594 Z M 40.21875 54.71875 C 39.550781 54.71875 39 54.171875 39 53.5 C 39 52.828125 39.550781 52.28125 40.21875 52.28125 C 40.890625 52.28125 41.441406 52.828125 41.441406 53.5 C 41.449219 54.171875 40.898438 54.71875 40.21875 54.71875 Z M 40.21875 54.71875 "/>
</g>
</svg>
