<?xml version="1.0" encoding="UTF-8"?>
<svg xmlns="http://www.w3.org/2000/svg" xmlns:xlink="http://www.w3.org/1999/xlink" width="100pt" height="100pt" viewBox="0 0 100 100" version="1.1">
<g id="surface1">
<path style=" stroke:none;fill-rule:nonzero;fill:rgb(0%,0%,0%);fill-opacity:1;" d="M 56.179688 18.539062 C 49.984375 18.539062 44.945312 23.578125 44.945312 29.773438 L 51.683594 29.773438 C 51.683594 27.296875 53.703125 25.28125 56.179688 25.28125 C 58.65625 25.28125 60.675781 27.296875 60.675781 29.773438 C 60.675781 32.253906 58.65625 34.269531 56.179688 34.269531 L 8.988281 34.269531 L 8.988281 41.011719 L 56.179688 41.011719 C 62.375 41.011719 67.414062 35.96875 67.414062 29.773438 C 67.414062 23.578125 62.375 18.539062 56.179688 18.539062 Z M 56.179688 18.539062 "/>
<path style=" stroke:none;fill-rule:nonzero;fill:rgb(0%,0%,0%);fill-opacity:1;" d="M 84.269531 20.785156 C 77.453125 20.785156 71.910156 26.332031 71.910156 33.144531 C 71.910156 38.101562 75.941406 42.132812 80.898438 42.132812 C 85.855469 42.132812 89.886719 38.101562 89.886719 33.144531 L 83.144531 33.144531 C 83.144531 34.386719 82.136719 35.394531 80.898438 35.394531 C 79.660156 35.394531 78.652344 34.386719 78.652344 33.144531 C 78.652344 30.046875 81.171875 27.527344 84.269531 27.527344 C 89.226562 27.527344 93.257812 31.5625 93.257812 36.515625 C 93.257812 41.472656 89.226562 45.503906 84.269531 45.503906 L 0 45.503906 L 0 52.246094 L 84.269531 52.246094 C 92.941406 52.246094 100 45.191406 100 36.515625 C 100 27.84375 92.945312 20.785156 84.269531 20.785156 Z M 84.269531 20.785156 "/>
<path style=" stroke:none;fill-rule:nonzero;fill:rgb(0%,0%,0%);fill-opacity:1;" d="M 67.414062 56.742188 L 8.988281 56.742188 L 8.988281 63.484375 L 67.414062 63.484375 C 70.511719 63.484375 73.035156 66.003906 73.035156 69.101562 C 73.035156 72.199219 70.511719 74.71875 67.414062 74.71875 C 64.316406 74.71875 61.796875 72.199219 61.796875 69.101562 L 55.054688 69.101562 C 55.054688 75.917969 60.601562 81.460938 67.414062 81.460938 C 74.230469 81.460938 79.773438 75.917969 79.773438 69.101562 C 79.773438 62.285156 74.230469 56.742188 67.414062 56.742188 Z M 67.414062 56.742188 "/>
</g>
</svg>
